# Blender 4.0.2
# www.blender.org
mtllib Foundation3x3Base.mtl
o Foundation3x3Base.001
v 1.511055 8.949999 -1.506704
v 1.511055 -3.000999 1.506673
v 1.511055 -3.001251 -1.506702
v 1.511055 8.950000 1.506669
v -1.511055 8.950000 1.506728
v 1.511055 -3.000999 1.506673
v 1.511055 8.950000 1.506669
v -1.511055 -3.001250 1.506732
v 1.511055 8.949999 -1.506704
v -1.511055 -3.001000 -1.506702
v -1.511055 8.949999 -1.506704
v 1.511055 -3.001251 -1.506702
v -1.511055 8.949999 -1.506704
v -1.511055 -3.001000 -1.506702
v -1.511055 8.950000 1.506728
v -1.511055 -3.001250 1.506732
v -1.511055 8.949999 -1.506704
v 1.511055 8.950000 1.506669
v 1.511055 8.949999 -1.506704
v -1.511055 8.950000 1.506728
vn 1.0000 -0.0000 -0.0000
vn -0.0000 -0.0000 1.0000
vn -0.0000 -0.0000 -1.0000
vn -1.0000 -0.0000 -0.0000
vn -0.0000 1.0000 -0.0000
vt 0.004070 -2.998047
vt 0.004070 0.998675
vt 0.999023 -2.998047
vt 0.999023 0.998674
vt 1.994141 0.998674
vt 1.994141 -2.998047
vt 2.990234 0.998675
vt 3.984375 0.998675
vt 2.990234 -2.998047
vt 3.984375 -2.998047
vt 0.002647 1.996582
vt 1.000000 1.996582
s 1
usemtl FoundationSiding
f 3/1/1 1/2/1 2/3/1
f 4/4/1 2/3/1 1/2/1
f 7/4/2 5/5/2 6/3/2
f 8/6/2 6/3/2 5/5/2
f 11/7/3 9/8/3 10/9/3
f 12/10/3 10/9/3 9/8/3
f 15/5/4 13/7/4 14/9/4
f 16/6/4 15/5/4 14/9/4
f 19/2/5 17/11/5 18/4/5
f 20/12/5 18/4/5 17/11/5
