# Blender 4.0.2
# www.blender.org
mtllib GridFoundation_triagular_diagonal.mtl
o GridFoundation_triagular_diagonal
v -2.121320 9.000000 -2.121320
v -2.121320 -2.999408 -2.121320
v -2.121309 9.000000 2.121315
v -2.121309 -2.999408 2.121316
v 2.121011 9.000000 -2.121166
v 2.121011 -2.999408 -2.121166
vn -1.0000 -0.0000 -0.0000
vn -0.0000 -0.0000 -1.0000
vn -0.0000 1.0000 -0.0000
vn -0.0000 -1.0000 -0.0000
vn 0.7071 -0.0000 0.7071
vt 0.375000 0.000000
vt 0.625000 0.000000
vt 0.625000 0.250000
vt 0.375000 0.250000
vt 0.375000 0.750000
vt 0.625000 0.750000
vt 0.625000 1.000000
vt 0.375000 1.000000
vt 0.125000 0.500000
vt 0.125000 0.750000
vt 0.875000 0.500000
vt 0.875000 0.750000
s 0
f 1/1/1 2/2/1 4/3/1 3/4/1
f 5/5/2 6/6/2 2/7/2 1/8/2
f 3/9/3 5/5/3 1/10/3
f 4/11/4 2/12/4 6/6/4
f 4/3/5 6/6/5 5/5/5 3/4/5
